<svg xmlns="http://www.w3.org/2000/svg" version="1.1" xmlns:xlink="http://www.w3.org/1999/xlink" xmlns:svgjs="http://svgjs.dev/svgjs" width="1000" height="1000" viewBox="0 0 1000 1000"><rect width="1000" height="1000" fill="#000000"></rect><g transform="matrix(0.7,0,0,0.7,149.57575757575756,335.870616161072)"><svg viewBox="0 0 396 186" data-background-color="#ffffff" preserveAspectRatio="xMidYMid meet" height="469" width="1000" xmlns="http://www.w3.org/2000/svg" xmlns:xlink="http://www.w3.org/1999/xlink"><defs></defs><g id="tight-bounds" transform="matrix(1,0,0,1,0.2400000000000091,-0.011680188727964946)"><svg viewBox="0 0 395.52 186.02335903101405" height="186.02335903101405" width="395.52"><g><svg viewBox="0 0 397.4975999999999 186.9534758261691" height="186.02335903101405" width="395.52"><g><rect width="397.4975999999999" height="5.726138043065973" x="0" y="102.7414117435695" fill="#ffffff" opacity="1" stroke-width="0" stroke="transparent" fill-opacity="1" class="rect-o-0" data-fill-palette-color="secondary" rx="1%" id="o-0" data-palette-color="#000000"></rect></g><g transform="matrix(1,0,0,1,0.9887999999999693,123.45743995172964)"><svg viewBox="0 0 395.52 63.49603587443946" height="63.49603587443946" width="395.52"><g><svg viewBox="0 0 395.52 63.49603587443946" height="63.49603587443946" width="395.52"><g><svg viewBox="0 0 395.52 63.49603587443946" height="63.49603587443946" width="395.52"><g transform="matrix(1,0,0,1,0,0)"><svg width="395.52" viewBox="3.549999952316284 -35.5 222.97999572753906 35.79999923706055" height="63.49603587443946" data-palette-color="#000000"><path d="M14.2 0L3.55 0 3.55-35 14.55-35Q20.4-35 23.3-32.68 26.2-30.35 26.2-26.05L26.2-26.05Q26.2-23.15 24.58-21.25 22.95-19.35 20.15-18.95L20.15-18.95Q23.7-18.35 25.65-16.1 27.6-13.85 27.6-10.5L27.6-10.5Q27.6-5.75 24.05-2.88 20.5 0 14.2 0L14.2 0ZM10.45-15.9L10.45-5.75 15.4-5.75Q17.8-5.75 19.25-7.03 20.7-8.3 20.7-10.48 20.7-12.65 19.07-14.28 17.45-15.9 14.35-15.9L14.35-15.9 10.45-15.9ZM14.8-29.25L14.8-29.25 10.45-29.25 10.45-21.6 14.3-21.6Q16.25-21.6 17.78-22.8 19.3-24 19.3-25.9L19.3-25.9Q19.3-29 14.8-29.25ZM40.75-15.2L40.75-15.2 40.15-15.2 40.15-0.05 32.9-0.05 32.9-35.05 44-35.05Q49.65-35.05 52.45-32.58 55.25-30.1 55.25-25.5L55.25-25.5Q55.25-22.7 53.3-20.38 51.35-18.05 48.55-17.7L48.55-17.7Q50.55-17.15 51.65-15.88 52.75-14.6 53.95-11.75L53.95-11.75 58.9-0.05 51.45-0.05 46.6-11.25Q45.55-13.65 44.37-14.43 43.2-15.2 40.75-15.2ZM43.8-29.35L43.8-29.35 40.15-29.35 40.15-20.9 43.3-20.9Q45.3-20.9 46.42-22.2 47.55-23.5 47.55-25.4L47.55-25.4Q47.55-29.35 43.8-29.35ZM69.55-35L69.55 0 62.3 0 62.3-35 69.55-35ZM96.64-5.75L96.64 0 75.89 0 75.89-35 83.14-35 83.14-5.75 96.64-5.75ZM120.29-5.75L120.29 0 99.54 0 99.54-35 106.79-35 106.79-5.75 120.29-5.75ZM133.04-13.45L133.04-13.45 130.44-13.45 130.44 0 123.19 0 123.19-35 134.19-35Q140.34-35 143.09-32.38 145.84-29.75 145.84-24.28 145.84-18.8 142.46-16.13 139.09-13.45 133.04-13.45ZM132.49-29.3L132.49-29.3 130.44-29.3 130.44-19.15 131.24-19.15Q135.04-19.15 136.81-20.3 138.59-21.45 138.59-24.18 138.59-26.9 137.14-28.1 135.69-29.3 132.49-29.3ZM171.09-5.75L171.09 0 150.24 0 150.24-35 171.09-35 171.09-29.25 157.49-29.25 157.49-21.9 169.84-21.9 169.84-16.05 157.49-16.05 157.49-5.75 171.09-5.75ZM187.18-13.45L187.18-13.45 184.58-13.45 184.58 0 177.33 0 177.33-35 188.33-35Q194.48-35 197.23-32.38 199.98-29.75 199.98-24.28 199.98-18.8 196.61-16.13 193.23-13.45 187.18-13.45ZM186.63-29.3L186.63-29.3 184.58-29.3 184.58-19.15 185.38-19.15Q189.18-19.15 190.96-20.3 192.73-21.45 192.73-24.18 192.73-26.9 191.28-28.1 189.83-29.3 186.63-29.3ZM223.98-33.75L223.98-33.75 222.78-27.9 219.68-28.75Q216.38-29.5 213.93-29.5L213.93-29.5Q210.53-29.5 210.53-26.25L210.53-26.25Q210.53-25 211.71-23.98 212.88-22.95 214.68-22.28 216.48-21.6 218.53-20.6 220.58-19.6 222.38-18.45 224.18-17.3 225.36-15.3 226.53-13.3 226.53-10.7L226.53-10.7Q226.53-5.55 223.21-2.63 219.88 0.3 213.83 0.3L213.83 0.3Q210.73 0.3 207.66-0.53 204.58-1.35 202.58-2.45L202.58-2.45 204.73-7.8Q209.33-5.7 213.83-5.7L213.83-5.7Q216.38-5.7 217.83-6.88 219.28-8.05 219.28-9.9 219.28-11.75 217.63-12.98 215.98-14.2 213.63-15.18 211.28-16.15 208.93-17.38 206.58-18.6 204.93-20.83 203.28-23.05 203.28-26.1L203.28-26.1Q203.28-30.65 206.13-33.08 208.98-35.5 213.81-35.5 218.63-35.5 223.98-33.75Z" opacity="1" transform="matrix(1,0,0,1,0,0)" fill="#ffffff" class="undefined-text-0" data-fill-palette-color="primary" id="text-0"></path></svg></g></svg></g></svg></g></svg></g><g transform="matrix(1,0,0,1,152.87113290822322,0)"><svg viewBox="0 0 91.75533418355346 87.75152157847533" height="87.75152157847533" width="91.75533418355346"><g><svg xmlns="http://www.w3.org/2000/svg" xmlns:xlink="http://www.w3.org/1999/xlink" version="1.1" x="8" y="0" viewBox="9.63800048828125 3.246999979019165 80.7239990234375 93.50699615478516" enable-background="new 0 0 100 100" xml:space="preserve" height="87.75152157847533" width="75.75533418355346" class="icon-icon-0" data-fill-palette-color="accent" id="icon-0"><g fill="#0191da" data-fill-palette-color="accent"><g fill="#0191da" data-fill-palette-color="accent"><polygon points="36.703,11.011 9.638,26.636 9.638,38.757 36.703,23.131 63.767,38.757 63.767,26.636   " fill="#ffffff" data-fill-palette-color="accent"></polygon></g><g fill="#0191da" data-fill-palette-color="accent"><polygon points="63.298,89.092 36.233,73.467 36.233,61.348 63.298,76.973 90.362,61.348 90.362,73.467   " fill="#ffffff" data-fill-palette-color="accent"></polygon></g><g fill="#0191da" data-fill-palette-color="accent"><polygon points="9.638,42.012 36.703,26.386 47.198,32.446 20.134,48.072 20.134,79.324 9.638,73.264   " fill="#ffffff" data-fill-palette-color="accent"></polygon></g><g fill="#0191da" data-fill-palette-color="accent"><polygon points="77.083,18.872 50.018,3.247 39.522,9.307 66.586,24.932 66.586,56.184 77.083,50.124   " fill="#ffffff" data-fill-palette-color="accent"></polygon></g><g fill="#0191da" data-fill-palette-color="accent"><polygon points="23.01,81.127 23.011,49.876 33.507,43.816 33.507,75.068 60.571,90.693 50.075,96.754   " fill="#ffffff" data-fill-palette-color="accent"></polygon></g><g fill="#0191da" data-fill-palette-color="accent"><polygon points="90.362,58.092 90.362,26.84 79.866,20.78 79.866,52.031 52.802,67.658 63.298,73.719   " fill="#ffffff" data-fill-palette-color="accent"></polygon></g></g></svg></g></svg></g><g><rect width="76.33801290822326" height="5.726138043065973" y="81.02538353540936" x="244.62646709177668" fill="#ffffff" data-fill-palette-color="secondary"></rect><rect width="76.33801290822326" height="5.726138043065973" y="81.02538353540936" x="76.53311999999997" fill="#ffffff" data-fill-palette-color="secondary"></rect></g></svg></g></svg><rect width="395.52" height="186.02335903101405" fill="none" stroke="none" visibility="hidden"></rect></g></svg></g></svg>